<svg width="11" height="19" viewBox="0 0 11 19" fill="none" xmlns="http://www.w3.org/2000/svg">
<path d="M10.45 18.6C10.7 18.35 10.825 18.0542 10.825 17.7125C10.825 17.3708 10.7 17.075 10.45 16.825L3.12495 9.5L10.475 2.15C10.7083 1.91667 10.825 1.625 10.825 1.275C10.825 0.925 10.7 0.625 10.45 0.375C10.2 0.125 9.90412 0 9.56245 0C9.22078 0 8.92495 0.125 8.67495 0.375L0.274951 8.8C0.174951 8.9 0.104118 9.00833 0.0624514 9.125C0.0207844 9.24167 -4.86374e-05 9.36667 -4.86374e-05 9.5C-4.86374e-05 9.63333 0.0207844 9.75833 0.0624514 9.875C0.104118 9.99167 0.174951 10.1 0.274951 10.2L8.69995 18.625C8.93328 18.8583 9.22078 18.975 9.56245 18.975C9.90412 18.975 10.2 18.85 10.45 18.6Z" fill="#9E9E9E"/>
</svg>
